<svg width="30" height="30" viewBox="0 0 30 30" fill="none" xmlns="http://www.w3.org/2000/svg">
<g id="cuida:grid-outline">
<g id="Group">
<path id="Vector" fill-rule="evenodd" clip-rule="evenodd" d="M6.25 2.5H10C10.9946 2.5 11.9484 2.89509 12.6517 3.59835C13.3549 4.30161 13.75 5.25544 13.75 6.25V10C13.75 10.9946 13.3549 11.9484 12.6517 12.6517C11.9484 13.3549 10.9946 13.75 10 13.75H6.25C5.25544 13.75 4.30161 13.3549 3.59835 12.6517C2.89509 11.9484 2.5 10.9946 2.5 10V6.25C2.5 5.25544 2.89509 4.30161 3.59835 3.59835C4.30161 2.89509 5.25544 2.5 6.25 2.5ZM6.25 5C5.91848 5 5.60054 5.1317 5.36612 5.36612C5.1317 5.60054 5 5.91848 5 6.25V10C5 10.3315 5.1317 10.6495 5.36612 10.8839C5.60054 11.1183 5.91848 11.25 6.25 11.25H10C10.3315 11.25 10.6495 11.1183 10.8839 10.8839C11.1183 10.6495 11.25 10.3315 11.25 10V6.25C11.25 5.91848 11.1183 5.60054 10.8839 5.36612C10.6495 5.1317 10.3315 5 10 5H6.25ZM20 2.5H23.75C24.7446 2.5 25.6984 2.89509 26.4017 3.59835C27.1049 4.30161 27.5 5.25544 27.5 6.25V10C27.5 10.9946 27.1049 11.9484 26.4017 12.6517C25.6984 13.3549 24.7446 13.75 23.75 13.75H20C19.0054 13.75 18.0516 13.3549 17.3483 12.6517C16.6451 11.9484 16.25 10.9946 16.25 10V6.25C16.25 5.25544 16.6451 4.30161 17.3483 3.59835C18.0516 2.89509 19.0054 2.5 20 2.5ZM20 5C19.6685 5 19.3505 5.1317 19.1161 5.36612C18.8817 5.60054 18.75 5.91848 18.75 6.25V10C18.75 10.3315 18.8817 10.6495 19.1161 10.8839C19.3505 11.1183 19.6685 11.25 20 11.25H23.75C24.0815 11.25 24.3995 11.1183 24.6339 10.8839C24.8683 10.6495 25 10.3315 25 10V6.25C25 5.91848 24.8683 5.60054 24.6339 5.36612C24.3995 5.1317 24.0815 5 23.75 5H20ZM6.25 16.25H10C10.9946 16.25 11.9484 16.6451 12.6517 17.3483C13.3549 18.0516 13.75 19.0054 13.75 20V23.75C13.75 24.7446 13.3549 25.6984 12.6517 26.4017C11.9484 27.1049 10.9946 27.5 10 27.5H6.25C5.25544 27.5 4.30161 27.1049 3.59835 26.4017C2.89509 25.6984 2.5 24.7446 2.5 23.75V20C2.5 19.0054 2.89509 18.0516 3.59835 17.3483C4.30161 16.6451 5.25544 16.25 6.25 16.25ZM6.25 18.75C5.91848 18.75 5.60054 18.8817 5.36612 19.1161C5.1317 19.3505 5 19.6685 5 20V23.75C5 24.0815 5.1317 24.3995 5.36612 24.6339C5.60054 24.8683 5.91848 25 6.25 25H10C10.3315 25 10.6495 24.8683 10.8839 24.6339C11.1183 24.3995 11.25 24.0815 11.25 23.75V20C11.25 19.6685 11.1183 19.3505 10.8839 19.1161C10.6495 18.8817 10.3315 18.75 10 18.75H6.25ZM20 16.25H23.75C24.7446 16.25 25.6984 16.6451 26.4017 17.3483C27.1049 18.0516 27.5 19.0054 27.5 20V23.75C27.5 24.7446 27.1049 25.6984 26.4017 26.4017C25.6984 27.1049 24.7446 27.5 23.75 27.5H20C19.0054 27.5 18.0516 27.1049 17.3483 26.4017C16.6451 25.6984 16.25 24.7446 16.25 23.75V20C16.25 19.0054 16.6451 18.0516 17.3483 17.3483C18.0516 16.6451 19.0054 16.25 20 16.25ZM20 18.75C19.6685 18.75 19.3505 18.8817 19.1161 19.1161C18.8817 19.3505 18.75 19.6685 18.75 20V23.75C18.75 24.0815 18.8817 24.3995 19.1161 24.6339C19.3505 24.8683 19.6685 25 20 25H23.75C24.0815 25 24.3995 24.8683 24.6339 24.6339C24.8683 24.3995 25 24.0815 25 23.75V20C25 19.6685 24.8683 19.3505 24.6339 19.1161C24.3995 18.8817 24.0815 18.75 23.75 18.75H20Z" fill="white"/>
</g>
</g>
</svg>
