<svg width="52" height="52" viewBox="0 0 52 52" fill="none" xmlns="http://www.w3.org/2000/svg">
<g id="material-symbols:ar-on-you-outline-rounded">
<path id="Vector" d="M26 8.66667C30.8389 8.66667 34.9375 10.3458 38.2958 13.7042C41.6542 17.0625 43.3333 21.1611 43.3333 26C43.3333 30.8389 41.6542 34.9375 38.2958 38.2958C34.9375 41.6542 30.8389 43.3333 26 43.3333C21.1611 43.3333 17.0625 41.6542 13.7042 38.2958C10.3458 34.9375 8.66667 30.8389 8.66667 26C8.66667 21.1611 10.3458 17.0625 13.7042 13.7042C17.0625 10.3458 21.1611 8.66667 26 8.66667ZM26 39C29.6111 39 32.6806 37.7361 35.2083 35.2083C37.7361 32.6806 39 29.6111 39 26C39 22.3889 37.7361 19.3194 35.2083 16.7917C32.6806 14.2639 29.6111 13 26 13C22.3889 13 19.3194 14.2639 16.7917 16.7917C14.2639 19.3194 13 22.3889 13 26C13 29.6111 14.2639 32.6806 16.7917 35.2083C19.3194 37.7361 22.3889 39 26 39ZM18.4167 21.6667C18.4167 22.2806 18.6247 22.7955 19.0407 23.2115C19.4567 23.6275 19.9709 23.8348 20.5833 23.8333C21.1958 23.8319 21.7107 23.6239 22.1282 23.2093C22.5456 22.7948 22.7529 22.2806 22.75 21.6667C22.7471 21.0528 22.5391 20.5386 22.126 20.124C21.7129 19.7094 21.1987 19.5014 20.5833 19.5C19.968 19.4986 19.4538 19.7066 19.0407 20.124C18.6276 20.5414 18.4196 21.0557 18.4167 21.6667ZM29.25 21.6667C29.25 22.2806 29.458 22.7955 29.874 23.2115C30.29 23.6275 30.8042 23.8348 31.4167 23.8333C32.0291 23.8319 32.5441 23.6239 32.9615 23.2093C33.3789 22.7948 33.5862 22.2806 33.5833 21.6667C33.5804 21.0528 33.3724 20.5386 32.9593 20.124C32.5462 19.7094 32.032 19.5014 31.4167 19.5C30.8013 19.4986 30.2871 19.7066 29.874 20.124C29.4609 20.5414 29.2529 21.0557 29.25 21.6667ZM2.16667 10.8333V6.5C2.16667 5.30833 2.59133 4.28856 3.44067 3.44067C4.29 2.59278 5.30978 2.16811 6.5 2.16667H10.8333C11.4472 2.16667 11.9622 2.37467 12.3782 2.79067C12.7942 3.20667 13.0014 3.72089 13 4.33333C12.9986 4.94578 12.7906 5.46072 12.376 5.87817C11.9614 6.29561 11.4472 6.50289 10.8333 6.5H6.5V10.8333C6.5 11.4472 6.292 11.9622 5.876 12.3782C5.46 12.7942 4.94578 13.0014 4.33333 13C3.72089 12.9986 3.20667 12.7906 2.79067 12.376C2.37467 11.9614 2.16667 11.4472 2.16667 10.8333ZM10.8333 49.8333H6.5C5.30833 49.8333 4.28856 49.4094 3.44067 48.5615C2.59278 47.7136 2.16811 46.6931 2.16667 45.5V41.1667C2.16667 40.5528 2.37467 40.0386 2.79067 39.624C3.20667 39.2094 3.72089 39.0014 4.33333 39C4.94578 38.9986 5.46072 39.2066 5.87817 39.624C6.29561 40.0414 6.50289 40.5557 6.5 41.1667V45.5H10.8333C11.4472 45.5 11.9622 45.708 12.3782 46.124C12.7942 46.54 13.0014 47.0542 13 47.6667C12.9986 48.2791 12.7906 48.7941 12.376 49.2115C11.9614 49.6289 11.4472 49.8362 10.8333 49.8333ZM45.5 49.8333H41.1667C40.5528 49.8333 40.0386 49.6253 39.624 49.2093C39.2094 48.7933 39.0014 48.2791 39 47.6667C38.9986 47.0542 39.2066 46.54 39.624 46.124C40.0414 45.708 40.5557 45.5 41.1667 45.5H45.5V41.1667C45.5 40.5528 45.708 40.0386 46.124 39.624C46.54 39.2094 47.0542 39.0014 47.6667 39C48.2791 38.9986 48.7941 39.2066 49.2115 39.624C49.6289 40.0414 49.8362 40.5557 49.8333 41.1667V45.5C49.8333 46.6917 49.4094 47.7122 48.5615 48.5615C47.7136 49.4108 46.6931 49.8348 45.5 49.8333ZM45.5 10.8333V6.5H41.1667C40.5528 6.5 40.0386 6.292 39.624 5.876C39.2094 5.46 39.0014 4.94578 39 4.33333C38.9986 3.72089 39.2066 3.20667 39.624 2.79067C40.0414 2.37467 40.5557 2.16667 41.1667 2.16667H45.5C46.6917 2.16667 47.7122 2.59133 48.5615 3.44067C49.4108 4.29 49.8348 5.30978 49.8333 6.5V10.8333C49.8333 11.4472 49.6253 11.9622 49.2093 12.3782C48.7933 12.7942 48.2791 13.0014 47.6667 13C47.0542 12.9986 46.54 12.7906 46.124 12.376C45.708 11.9614 45.5 11.4472 45.5 10.8333ZM26 33.5833C27.3722 33.5833 28.6455 33.2583 29.8198 32.6083C30.9942 31.9583 31.9417 31.0736 32.6625 29.9542C32.8792 29.5569 32.8705 29.1597 32.6365 28.7625C32.4025 28.3653 32.0501 28.1667 31.5792 28.1667H20.4208C19.9514 28.1667 19.5989 28.3653 19.3635 28.7625C19.1281 29.1597 19.1194 29.5569 19.3375 29.9542C20.0597 31.0736 21.008 31.9583 22.1823 32.6083C23.3567 33.2583 24.6292 33.5833 26 33.5833Z" fill="white"/>
</g>
</svg>
