<svg width="30" height="30" viewBox="0 0 30 30" fill="none" xmlns="http://www.w3.org/2000/svg">
<g id="users">
<g id="Group">
<g id="Group_2">
<path id="Vector" fill-rule="evenodd" clip-rule="evenodd" d="M10.9375 11.875C11.2248 11.875 11.5092 11.8184 11.7746 11.7085C12.04 11.5986 12.2812 11.4374 12.4843 11.2343C12.6874 11.0312 12.8486 10.79 12.9585 10.5246C13.0684 10.2592 13.125 9.97477 13.125 9.6875C13.125 9.40023 13.0684 9.11578 12.9585 8.85038C12.8486 8.58498 12.6874 8.34383 12.4843 8.1407C12.2812 7.93758 12.04 7.77645 11.7746 7.66651C11.5092 7.55658 11.2248 7.5 10.9375 7.5C10.3573 7.5 9.80094 7.73047 9.3907 8.1407C8.98047 8.55094 8.75 9.10734 8.75 9.6875C8.75 10.2677 8.98047 10.8241 9.3907 11.2343C9.80094 11.6445 10.3573 11.875 10.9375 11.875ZM10.9375 14.375C11.5531 14.375 12.1626 14.2538 12.7313 14.0182C13.3 13.7826 13.8168 13.4373 14.2521 13.0021C14.6873 12.5668 15.0326 12.05 15.2682 11.4813C15.5038 10.9126 15.625 10.3031 15.625 9.6875C15.625 9.07193 15.5038 8.46239 15.2682 7.89367C15.0326 7.32496 14.6873 6.80821 14.2521 6.37294C13.8168 5.93766 13.3 5.59238 12.7313 5.35681C12.1626 5.12125 11.5531 5 10.9375 5C9.6943 5 8.50201 5.49386 7.62294 6.37294C6.74386 7.25201 6.25 8.4443 6.25 9.6875C6.25 10.9307 6.74386 12.123 7.62294 13.0021C8.50201 13.8811 9.6943 14.375 10.9375 14.375ZM4.0825 18.1588C5.20625 16.5975 6.91875 15.625 9.1075 15.625H13.3925C15.5825 15.625 17.2937 16.5975 18.4175 18.1588C19.5088 19.675 20 21.6737 20 23.75C20 24.0815 19.8683 24.3995 19.6339 24.6339C19.3995 24.8683 19.0815 25 18.75 25C18.4185 25 18.1005 24.8683 17.8661 24.6339C17.6317 24.3995 17.5 24.0815 17.5 23.75C17.5 22.0287 17.0875 20.5912 16.3875 19.6187C15.7212 18.6912 14.7537 18.125 13.3925 18.125H9.1075C7.745 18.125 6.77875 18.6912 6.11125 19.6187C5.4125 20.59 5 22.0287 5 23.75C5 24.0815 4.8683 24.3995 4.63388 24.6339C4.39946 24.8683 4.08152 25 3.75 25C3.41848 25 3.10054 24.8683 2.86612 24.6339C2.6317 24.3995 2.5 24.0815 2.5 23.75C2.5 21.6737 2.99125 19.675 4.0825 18.1588Z" fill="white"/>
<path id="Vector_2" fill-rule="evenodd" clip-rule="evenodd" d="M2.5 23.75C2.5 23.4185 2.6317 23.1005 2.86612 22.8661C3.10054 22.6317 3.41848 22.5 3.75 22.5H18.7137C19.0453 22.5 19.3632 22.6317 19.5976 22.8661C19.8321 23.1005 19.9637 23.4185 19.9637 23.75C19.9637 24.0815 19.8321 24.3994 19.5976 24.6339C19.3632 24.8683 19.0453 25 18.7137 25H3.75C3.41848 25 3.10054 24.8683 2.86612 24.6339C2.6317 24.3994 2.5 24.0815 2.5 23.75ZM18.615 7.33373L18.58 7.33123C18.3922 7.32034 18.2059 7.29103 18.0237 7.24373C17.5925 7.12873 17.205 6.89873 17.0288 6.49998L17.0125 6.46498C16.7525 5.87748 17.02 5.17373 17.6538 5.06498C18.2946 4.95723 18.9508 4.9839 19.5807 5.14327C20.2107 5.30265 20.8006 5.59126 21.3131 5.99078C21.8255 6.3903 22.2493 6.892 22.5576 7.46404C22.8658 8.03608 23.0517 8.66596 23.1036 9.31369C23.1554 9.96141 23.072 10.6128 22.8587 11.2266C22.6453 11.8404 22.3067 12.4031 21.8643 12.879C21.4219 13.355 20.8853 13.7337 20.2887 13.9913C19.6921 14.2488 19.0485 14.3795 18.3988 14.375C17.7562 14.37 17.38 13.7175 17.5437 13.0962L17.5538 13.0587C17.6638 12.6362 18.0112 12.3475 18.4163 12.1662C18.5993 12.0853 18.7904 12.0237 18.9862 11.9825C19.5352 11.8533 20.0197 11.5318 20.352 11.0761C20.6842 10.6204 20.8422 10.0608 20.7973 9.49865C20.7524 8.9365 20.5076 8.40904 20.1073 8.01187C19.7069 7.61471 19.1775 7.37412 18.615 7.33373ZM19.375 16.875C19.375 16.5435 19.5067 16.2255 19.7411 15.9911C19.9755 15.7567 20.2935 15.625 20.625 15.625H20.8925C23.0825 15.625 24.7937 16.5975 25.9175 18.1587C27.0087 19.675 27.5 21.6737 27.5 23.75C27.5 24.0815 27.3683 24.3994 27.1339 24.6339C26.8995 24.8683 26.5815 25 26.25 25C25.9185 25 25.6005 24.8683 25.3661 24.6339C25.1317 24.3994 25 24.0815 25 23.75C25 22.0287 24.5875 20.5912 23.8875 19.6187C23.2213 18.6912 22.2538 18.125 20.8925 18.125H20.625C20.2935 18.125 19.9755 17.9933 19.7411 17.7589C19.5067 17.5244 19.375 17.2065 19.375 16.875Z" fill="white"/>
<path id="Vector_3" fill-rule="evenodd" clip-rule="evenodd" d="M21.25 23.75C21.25 23.4185 21.3817 23.1005 21.6161 22.8661C21.8505 22.6317 22.1685 22.5 22.5 22.5H26.2138C26.5453 22.5 26.8632 22.6317 27.0976 22.8661C27.3321 23.1005 27.4638 23.4185 27.4638 23.75C27.4638 24.0815 27.3321 24.3995 27.0976 24.6339C26.8632 24.8683 26.5453 25 26.2138 25H22.5C22.1685 25 21.8505 24.8683 21.6161 24.6339C21.3817 24.3995 21.25 24.0815 21.25 23.75Z" fill="white"/>
</g>
</g>
</g>
</svg>
